<svg width="44" height="44" fill="none" xmlns="http://www.w3.org/2000/svg"><circle cx="22" cy="22" r="22" fill="#FFF4E1"/><path d="M27.108 26.559l.569.133 1.844 5.3a.244.244 0 01-.256.323l-2.585-.271a.243.243 0 00-.196.068l-1.86 1.818a.244.244 0 01-.4-.094L22.367 28.5l.269-.394 4.472-1.548z" fill="#EE202E"/><path d="M22.366 28.501l-.375-1.078 5.31-1.806.375 1.075a9.747 9.747 0 01-5.31 1.809z" fill="#C42530"/><path d="M16.884 26.559l-.568.133-1.845 5.3a.244.244 0 00.256.323l2.585-.271a.244.244 0 01.196.068l1.86 1.818a.244.244 0 00.4-.094l1.857-5.335-.269-.394-4.472-1.548z" fill="#EE202E"/><path d="M21.625 28.501L22 27.423l-5.31-1.806-.375 1.075a9.748 9.748 0 005.31 1.809z" fill="#C42530"/><path d="M22 26.81c-8.7 0-8.708-8.392-8.7-8.537a8.712 8.712 0 0117.401 0c.007.145.011 8.537-8.7 8.537z" fill="#FDCE74"/><path d="M22 26.546a8.712 8.712 0 01-8.7-8.273 8.712 8.712 0 1017.402 0A8.712 8.712 0 0122 26.546z" fill="#FBAC17"/><path d="M22 25.002c-6.849 0-6.858-6.583-6.849-6.729a6.863 6.863 0 0113.698 0c.01.146.014 6.73-6.849 6.73z" fill="#FF9838"/><path d="M22.628 15.37l.64 1.296a.7.7 0 00.527.383l1.432.208a.7.7 0 01.388 1.195l-1.036 1.01a.7.7 0 00-.201.62l.244 1.425c.024.136-.037.376-.037.376h-.98L22 20.98l-1.607.903-.971.02s-.07-.252-.045-.396l.244-1.425a.7.7 0 00-.201-.62l-1.036-1.01a.7.7 0 01.389-1.195l1.43-.208a.7.7 0 00.528-.383l.64-1.297a.7.7 0 011.257 0z" fill="#FFF5F5"/></svg>