<svg width="44" height="44" fill="none" xmlns="http://www.w3.org/2000/svg"><circle cx="22" cy="22" r="22" fill="#FFF4F5"/><path d="M27.617 11.665h-.993a.665.665 0 00-.665-.665H14.4a.665.665 0 00-.665.665v17.664c0 .367.298.665.665.665 12.601 0 11.62.038 11.836-.06a.667.667 0 00.356-.4h1.026v-17.87z" fill="#60B7FF"/><path d="M27.34 11h-1.38c.367 0 .665.298.665.665v17.664a.665.665 0 01-.665.665h1.382a.665.665 0 00.664-.665V11.665a.665.665 0 00-.664-.665z" fill="#60B7FF"/><path d="M28.004 15.552l-3.07-3.07h-9.242a.919.919 0 00-.919.92v16.426c0 .056.006.111.016.165h12.55a.665.665 0 00.665-.665V15.552z" fill="#26A6FE"/><path d="M29.093 15.723l-1.558-.972-1.345-2.269h-9.242a.919.919 0 00-.919.92v16.426a.92.92 0 00.919.919h12.127l.018-.001V15.723z" fill="#EAF6FF"/><path d="M29.994 16.287l-1.382-.863v14.404a.919.919 0 01-.919.92h1.382a.919.919 0 00.919-.92V16.287z" fill="#D8ECFE"/><path d="M27.11 16.286h2.885l-3.804-3.804v2.885a.92.92 0 00.92.919z" fill="#B3DAFE"/><path d="M27.79 18.368h-9.555a.332.332 0 110-.665h9.554a.332.332 0 010 .665zm0 2.199h-9.555a.332.332 0 110-.665h9.554a.332.332 0 010 .665z" fill="#82AEE3"/><path d="M31.411 22h-.72a.89.89 0 00-.768-.446H18.767l-1.167-1.93h-.707a.664.664 0 00-.532-.267h-3.888a.665.665 0 00-.664.665v12.092c0 .489.396.886.886.886h17.228a.888.888 0 00.427-.111h.002a.89.89 0 00.284-.25h.775V22z" fill="#FBAC17"/><path d="M16.95 19.714l.963 1.84h1.382l-.963-1.84a.665.665 0 00-.589-.357h-1.382c.248 0 .474.138.59.357zm14.355 1.841h-1.381c.49 0 .886.396.886.886v9.673c0 .49-.397.886-.886.886h1.381c.49 0 .887-.397.887-.886V22.44a.886.886 0 00-.887-.886z" fill="#FDCE74"/></svg>