<svg width="44" height="44" fill="none" xmlns="http://www.w3.org/2000/svg"><circle cx="22" cy="22" r="22" fill="#FFF4F5"/><g clip-path="url(#clip0)"><path d="M27.92 34a.476.476 0 00.476-.476v-4.912a3.278 3.278 0 00-1.95-2.997l-3.978-1.705a2.057 2.057 0 01-1.247-1.891v-.36h-3.868v.38c0 .818-.486 1.56-1.237 1.886l-3.932 1.71a3.278 3.278 0 00-2.006 3.021v4.868c0 .263.213.476.475.476h17.268z" fill="#EE202E"/><path d="M19.833 25.87l2.635-1.945.006-.013-.006-.002a2.058 2.058 0 01-1.247-1.891v-.36h-3.869v.38c0 .818-.486 1.56-1.237 1.886l2.894 1.96c.25.17.58.164.824-.016z" fill="#FFCEBF"/><path d="M17.353 21.658v.38c0 .195-.028.385-.08.566a3.854 3.854 0 002.728 1.127 3.85 3.85 0 001.699-.393 2.056 2.056 0 01-.479-1.32v-.36h-3.868z" fill="#FFB09E"/><path d="M25.271 34v-2.533h3.124v2.058a.476.476 0 01-.475.476h-2.65zm-15.093-.475v-2.058h3.124V34h-2.649a.476.476 0 01-.475-.476z" fill="#FFCEBF"/><path d="M19.287 28.292a.357.357 0 100-.714.357.357 0 000 .714zm0 2.14a.357.357 0 100-.713.357.357 0 000 .713zm0 2.141a.357.357 0 100-.714.357.357 0 000 .714z" fill="#fff"/><path d="M23.152 17.105H15.42V12.64A2.64 2.64 0 0118.06 10h2.453a2.64 2.64 0 012.64 2.64v4.465z" fill="#69676A"/><path d="M23.152 14.429v4.008a3.866 3.866 0 11-7.732 0v-2.8c0-.919.93-1.546 1.782-1.201l1.849.748a3.647 3.647 0 003.21-.234l.891-.521z" fill="#FFCEBF"/><path d="M23.152 17.328c-.099.466-.382 1.322-1.178 1.958a3.233 3.233 0 01-1.172.592.357.357 0 10.188.688 3.943 3.943 0 001.43-.723c.265-.212.483-.444.663-.68.045-.235.07-.477.07-.726v-1.109z" fill="#838285"/><path d="M20.386 20.87h-.866a.714.714 0 010-1.427h.866a.714.714 0 110 1.427z" fill="#69676A"/><path d="M33.821 16.866a4.56 4.56 0 00-4.626-4.559 4.573 4.573 0 00-4.492 4.53 4.548 4.548 0 001.563 3.465.198.198 0 01-.03.32l-.858.508c-.14.082-.08.295.08.295l3.89-.001a4.559 4.559 0 004.473-4.558z" fill="#92C83E"/><circle r=".5" transform="matrix(1 0 0 -1 27 17)" fill="#fff"/><circle r=".5" transform="matrix(1 0 0 -1 29 17)" fill="#fff"/><circle r=".5" transform="matrix(1 0 0 -1 31 17)" fill="#fff"/></g><defs><clipPath id="clip0"><path fill="#fff" transform="translate(10 10)" d="M0 0h24v24H0z"/></clipPath></defs></svg>