<svg width="44" height="44" fill="none" xmlns="http://www.w3.org/2000/svg"><circle cx="22" cy="22" r="22" fill="#FFF4E1"/><path d="M33 22.44c0 .146-.006 3.526-.45 5.217a2.999 2.999 0 01-2.11 2.11 6.357 6.357 0 01-.712.131h-.002c-2.322.316-7.482.32-7.726.32-.274 0-6.73-.005-8.44-.468a2.998 2.998 0 01-2.109-2.11c-.446-1.674-.451-5.073-.451-5.217 0-.144.005-3.526.45-5.217a3.065 3.065 0 012.11-2.128c1.694-.446 8.165-.451 8.44-.451.242 0 5.291.004 7.65.322.319.043.589.091.79.147a2.997 2.997 0 012.11 2.108c.461 1.687.45 5.073.45 5.236z" fill="#EE202E"/><path d="M31.71 22.434v.006c0 .928-.072 3.612-.406 4.885a1.707 1.707 0 01-1.195 1.197 6.1 6.1 0 01-.758.128c-1.89.226-5.79.28-7.351.28-1.819 0-6.82-.076-8.105-.424a1.702 1.702 0 01-1.198-1.196c-.334-1.254-.408-3.953-.408-4.887 0-.927.073-3.612.407-4.884a1.757 1.757 0 011.197-1.216l.006-.001c1.283-.333 6.283-.406 8.101-.406 1.558 0 5.44.055 7.33.288.321.04.586.084.77.135a1.708 1.708 0 011.204 1.2l.001.004c.346 1.263.41 3.957.406 4.891z" fill="#EE202E"/><path d="M24.907 22.143l-4.192-2.413a.323.323 0 00-.483.28v4.826a.322.322 0 00.483.279l4.192-2.413a.322.322 0 000-.559z" fill="#fff"/><path d="M30.292 12.071v4.106c0 .59-.48 1.071-1.071 1.071h-2.26l-.689.993a.322.322 0 01-.53 0l-.688-.993h-2.26c-.59 0-1.071-.48-1.071-1.071V12.07c0-.59.48-1.071 1.071-1.071h6.427c.591 0 1.071.48 1.071 1.071z" fill="#FBAC17"/><path d="M27.396 13.063a.965.965 0 00-1.363 0l-.024.025-.025-.024a.959.959 0 00-.681-.283c-.258 0-.5.1-.681.282a.956.956 0 00-.282.68c0 .258.1.5.282.682l1.235 1.233a.215.215 0 00.303 0l1.235-1.233a.964.964 0 000-1.362z" fill="#fff"/><path d="M23.052 29.067v2.947a.986.986 0 01-.985.985H15.79a.986.986 0 01-.984-.985v-4.967a.323.323 0 01.517-.257l1.7 1.293h5.043c.542 0 .985.441.985.984z" fill="#663595"/><path d="M21.177 31.027h-4.294a.322.322 0 100 .645h4.294a.322.322 0 100-.645zm-4.292-.817h3.865a.322.322 0 100-.644h-3.865a.322.322 0 100 .645z" fill="#fff"/></svg>