<svg width="44" height="44" fill="none" xmlns="http://www.w3.org/2000/svg"><circle cx="22" cy="22" r="22" fill="#EDF6DF"/><g clip-path="url(#clip0)"><path d="M22.927 16.98l-.927.233-8.852-2.221v-2.945c0-.356.289-.645.645-.645 3.306 0 5.512 1.31 6.781 2.408 1.384 1.198 1.98 2.405 2.005 2.456l.348.714z" fill="#D3D2D3"/><path d="M30.207 11.402c-3.306 0-5.512 1.31-6.781 2.408A9.49 9.49 0 0022 15.35v1.863l8.852-2.221v-2.945a.645.645 0 00-.645-.645z" fill="#E9E9E9"/><path d="M22 32.597a.644.644 0 01-.286-.067c-.061-.03-4.303-2.082-10.07-2.082a.644.644 0 01-.644-.644V14.4c0-.356.289-.644.645-.644 6.096 0 10.458 2.125 10.641 2.215.22.109.358.333.358.578v15.403a.644.644 0 01-.644.645z" fill="#F9F9F9"/><path d="M32.355 13.756c-5.609 0-9.292 1.556-10.355 2.07v16.77a.644.644 0 00.313-.08c.037-.02 3.798-2.068 10.043-2.068a.644.644 0 00.644-.644V14.4a.644.644 0 00-.645-.644z" fill="#E9E9E9"/><path d="M24.578 29.061a.645.645 0 01-.191-1.26 25.89 25.89 0 015.332-1.037.645.645 0 01.116 1.284 24.602 24.602 0 00-5.066.984.647.647 0 01-.19.03zm0-2.578a.645.645 0 01-.191-1.26 25.89 25.89 0 015.332-1.037.644.644 0 11.116 1.284 24.602 24.602 0 00-5.066.984.647.647 0 01-.19.029zm0-2.578a.645.645 0 01-.191-1.26 25.89 25.89 0 015.332-1.037.645.645 0 01.116 1.284 24.608 24.608 0 00-5.066.984.643.643 0 01-.19.029zm0-2.578a.645.645 0 01-.191-1.26 25.89 25.89 0 015.332-1.037.644.644 0 11.116 1.284 24.608 24.608 0 00-5.066.983.643.643 0 01-.19.03zm0-2.579a.645.645 0 01-.191-1.26 25.89 25.89 0 015.332-1.036.645.645 0 01.116 1.284 24.602 24.602 0 00-5.066.983.647.647 0 01-.19.03zM19.4 29.061a.644.644 0 01-.191-.03 24.6 24.6 0 00-5.066-.983.645.645 0 11.116-1.284c1.872.17 3.666.519 5.332 1.037a.645.645 0 01-.19 1.26zm0-2.578a.641.641 0 01-.191-.03 24.6 24.6 0 00-5.066-.983.645.645 0 01.116-1.284c1.872.17 3.666.519 5.332 1.037a.645.645 0 01-.19 1.26zm0-2.578a.644.644 0 01-.191-.03 24.593 24.593 0 00-5.066-.983.645.645 0 01.116-1.284c1.872.17 3.666.519 5.332 1.037a.645.645 0 01-.19 1.26zm0-2.579a.643.643 0 01-.191-.029 24.6 24.6 0 00-5.066-.983.645.645 0 01-.586-.642v-2.578a.645.645 0 01.702-.642c1.872.17 3.666.518 5.332 1.036.27.084.453.334.453.616v2.578a.645.645 0 01-.644.645z" fill="#606A70"/></g><defs><clipPath id="clip0"><path fill="#fff" transform="translate(11 11)" d="M0 0h22v22H0z"/></clipPath></defs></svg>