<svg width="44" height="44" fill="none" xmlns="http://www.w3.org/2000/svg"><circle cx="22" cy="22" r="22" fill="#E2F8FD"/><path d="M34 20.296C34 14.61 29.369 10 23.657 10c-5.713 0-10.344 4.61-10.344 10.296 0 5.686 4.631 10.296 10.344 10.296 1.198 0 2.35-.204 3.42-.577l2.295 1.108a.6.6 0 00.86-.54v-2.34A10.258 10.258 0 0034 20.297z" fill="#663595"/><path d="M18.87 21.96a1.459 1.459 0 100-2.917 1.459 1.459 0 000 2.917zm4.786 0a1.459 1.459 0 100-2.917 1.459 1.459 0 000 2.917zm4.787 0a1.459 1.459 0 100-2.917 1.459 1.459 0 000 2.917z" fill="#fff"/><path d="M10 28.457c0-2.804 2.283-5.076 5.099-5.076 2.816 0 5.1 2.272 5.1 5.076 0 2.803-2.284 5.076-5.1 5.076-.591 0-1.159-.1-1.686-.285l-1.269.613a.2.2 0 01-.287-.18v-1.306A5.057 5.057 0 0110 28.457z" fill="#FEE6BA"/></svg>