<svg width="44" height="44" fill="none" xmlns="http://www.w3.org/2000/svg"><circle cx="22" cy="22" r="22" fill="#FFF4F5"/><path d="M30.045 11.348h-5.39a.673.673 0 00-.675.673v.674h-4.043v-.674a.673.673 0 00-.673-.673h-5.391a.673.673 0 00-.674.673v20.305c0 .373.302.674.674.674h16.172a.673.673 0 00.674-.674V12.021a.673.673 0 00-.674-.673z" fill="#EE202E"/><path d="M19.263 14.043h5.39a.673.673 0 00.674-.674v-1.348A2 2 0 0023.306 10H20.61a2.024 2.024 0 00-2.022 2.021v1.348c0 .373.302.674.674.674zm2.225 1.54L19.27 17.8l-.872-.871a.674.674 0 10-.953.953l1.348 1.347a.672.672 0 00.953 0l2.695-2.695a.674.674 0 10-.953-.953zm0 5.39l-2.218 2.219-.872-.872a.674.674 0 10-.953.953l1.348 1.348a.672.672 0 00.953 0l2.695-2.695a.674.674 0 10-.953-.953zm0 5.39l-2.218 2.22-.872-.872a.674.674 0 10-.953.953l1.348 1.348a.672.672 0 00.953 0l2.695-2.696a.674.674 0 10-.953-.953zm1.825-8.957c0 .373.3.674.673.674h2.022a.673.673 0 100-1.348h-2.022a.673.673 0 00-.674.674zm2.695 4.717h-2.022a.673.673 0 100 1.348h2.022a.673.673 0 100-1.348zm0 5.39h-2.022a.673.673 0 100 1.348h2.022a.673.673 0 100-1.347z" fill="#FBC7CB"/></svg>