<svg width="44" height="44" fill="none" xmlns="http://www.w3.org/2000/svg"><circle cx="22" cy="22" r="22" fill="#FFF4E1"/><path d="M10 26.17c0-3.96 3.134-7.17 7-7.17s7 3.21 7 7.17-3.134 7.17-7 7.17c-.811 0-1.59-.141-2.315-.401l-1.847.917a.2.2 0 01-.289-.179v-1.972A7.224 7.224 0 0110 26.17z" fill="#FBAC17"/><path d="M34 18.604C34 13.852 30.194 10 25.5 10S17 13.852 17 18.604c0 4.753 3.806 8.605 8.5 8.605.985 0 1.931-.17 2.811-.482l1.729.848a.6.6 0 00.864-.538v-1.79A8.629 8.629 0 0034 18.603z" fill="#00C2F3"/><path d="M17.125 29.404c.89-.248 1.875-1.078 1.875-3.245C19 23.841 17.644 23 16.5 23s-2.5.841-2.5 3.159c0 1.898.757 2.77 1.54 3.127l.82 1.358c.122.205.316.356.545.356.246 0 .748-.226.748-.582a.567.567 0 00-.07-.248l-.458-.766zm-.616-1.434c-.484 0-1.233-.28-1.233-1.779 0-1.326.634-1.67 1.215-1.67.599 0 1.233.344 1.233 1.67 0 1.499-.749 1.78-1.215 1.78zM25.5 15a.994.994 0 00-.924.681l-1.527 4.322a.73.73 0 00.671.997.66.66 0 00.642-.437l.185-.53h1.906l.185.53a.66.66 0 00.642.437.73.73 0 00.671-.997l-1.527-4.322A.994.994 0 0025.5 15zm0 2.288l.457 1.312h-.914l.457-1.312z" fill="#fff"/></svg>