<svg width="44" height="44" fill="none" xmlns="http://www.w3.org/2000/svg"><path d="M43.5 22c0 11.874-9.626 21.5-21.5 21.5S.5 33.874.5 22 10.126.5 22 .5 43.5 10.126 43.5 22z" stroke="#69676A"/><path d="M20 25l5.19-3L20 19v6zm11.56-7.83c.13.47.22 1.1.28 1.9.07.8.1 1.49.1 2.09L32 22c0 2.19-.16 3.8-.44 4.83-.25.9-.83 1.48-1.73 1.73-.47.13-1.33.22-2.65.28-1.3.07-2.49.1-3.59.1L22 29c-4.19 0-6.8-.16-7.83-.44-.9-.25-1.48-.83-1.73-1.73-.13-.47-.22-1.1-.28-1.9-.07-.8-.1-1.49-.1-2.09L12 22c0-2.19.16-3.8.44-4.83.25-.9.83-1.48 1.73-1.73.47-.13 1.33-.22 2.65-.28 1.3-.07 2.49-.1 3.59-.1L22 15c4.19 0 6.8.16 7.83.44.9.25 1.48.83 1.73 1.73z" fill="#fff"/></svg>